PathFileType	4	(X/Y/Z)	E:\Qualisys_Data\Carbon_Farble_Plate\Data\Amateur_Runner\S14\T1\S14T1V11_c3d.trc
DataRate	CameraRate	NumFrames	NumMarkers	Units	OrigDataRate	OrigDataStartFrame	OrigNumFrames
200.000000	200.000000	4	39	mm	200.000000	87	349
Frame#	Time	LSHO			RSHO			LICST			RICST			LASIS			LHEEL			RASIS			LTROC			RTROC			SACR			LTH1			LSK4			LTH2			LTH3			RHM5			LSK2			LTH4			RTH1			LTOE			RTH2			RTH3			RTH4			LLEP			RLEP			LSK1			LSK3			RSK1			LHM5			RSK2			LFT1			RSK3			RSK4			LLME			RLME			RTOE			RHEEL			RFT1			RFT2			LFT2			
		X1	Y1	Z1	X2	Y2	Z2	X3	Y3	Z3	X4	Y4	Z4	X5	Y5	Z5	X6	Y6	Z6	X7	Y7	Z7	X8	Y8	Z8	X9	Y9	Z9	X10	Y10	Z10	X11	Y11	Z11	X12	Y12	Z12	X13	Y13	Z13	X14	Y14	Z14	X15	Y15	Z15	X16	Y16	Z16	X17	Y17	Z17	X18	Y18	Z18	X19	Y19	Z19	X20	Y20	Z20	X21	Y21	Z21	X22	Y22	Z22	X23	Y23	Z23	X24	Y24	Z24	X25	Y25	Z25	X26	Y26	Z26	X27	Y27	Z27	X28	Y28	Z28	X29	Y29	Z29	X30	Y30	Z30	X31	Y31	Z31	X32	Y32	Z32	X33	Y33	Z33	X34	Y34	Z34	X35	Y35	Z35	X36	Y36	Z36	X37	Y37	Z37	X38	Y38	Z38	X39	Y39	Z39	

88	0.435	-1278.244262695312	1472.663208007812	-525.7529907226562	-1158.448120117188	1466.536743164062	-247.8173675537109	-1277.267944335938	1030.657836914062	-498.7823486328125	-1214.634887695312	1024.101928710938	-230.4127197265625	-1232.0849609375	980.044921875	-478.8638305664062	-1193.84716796875	126.6297912597656	-361.5840454101562	-1198.860717773438	977.2049560546876	-249.3746185302734	-1364.556884765625	913.4642944335938	-511.6688537597656	-1356.633178710938	954.3716430664062	-183.7674865722656	-1381.47900390625	1041.472778320312	-348.9943542480469	-1191.929321289062	709.5250854492188	-512.7393798828125	-1193.167846679688	341.9402160644531	-454.1183166503906	-1257.749267578125	678.075927734375	-485.196533203125	-1139.317749023438	627.6725463867188	-488.7301940917969	-1755.844360351562	133.6421661376953	-203.6780853271484	-1192.4375	440.0519104003906	-474.0089111328125	-1209.6650390625	594.6980590820312	-469.1015930175781	-1321.179565429688	689.3314208984375	-192.7663726806641	-942.7102661132812	157.577392578125	-413.7853088378906	-1391.349731445312	722.9473876953125	-180.3489227294922	-1362.149291992188	599.458251953125	-216.2126617431641	-1437.997314453125	633.1558837890625	-196.9257659912109	-1139.131591796875	552.7391357421875	-477.581787109375	-1455.292602539062	558.6232299804688	-205.5682830810547	-1110.26953125	440.4624633789062	-475.64453125	-1112.582275390625	339.7015075683594	-458.4791564941406	-1521.997192382812	451.0735473632812	-199.1290435791016	-1011.112426757812	125.4441452026367	-465.0720825195312	-1584.63818359375	508.7615356445312	-198.5354156494141	-1175.171630859375	107.2883148193359	-337.256103515625	-1596.604614257812	378.7542114257812	-206.9840850830078	-1649.869750976562	437.8475036621094	-206.9705810546875	-1149.679077148438	162.979736328125	-429.2184448242188	-1749.44775390625	287.3027038574219	-221.3457489013672	-1712.4736328125	75.6793212890625	-264.5385437011719	-1788.389770507812	324.6531372070312	-275.6674499511719	-1805.587890625	301.8603515625	-308.4178771972656	-1811.7421875	313.4985961914062	-251.2285308837891	-1190.858032226562	98.35269927978516	-388.8869323730469
89	0.44	-1262.55078125	1471.558227539062	-526.5761108398438	-1142.284057617188	1466.177612304688	-248.9487457275391	-1260.263061523438	1029.375122070312	-498.676513671875	-1198.68603515625	1023.333374023438	-230.9566192626953	-1214.440673828125	978.7390747070312	-478.5258178710938	-1165.815185546875	121.8808288574219	-362.2120971679688	-1182.57275390625	976.352294921875	-249.257080078125	-1348.48291015625	912.60107421875	-511.4888000488281	-1340.3916015625	954.004150390625	-184.0136871337891	-1364.82470703125	1041.074829101562	-349.394775390625	-1178.109985351562	707.2899780273438	-513.6718139648438	-1172.50048828125	338.4568481445312	-453.3590698242188	-1243.49658203125	676.48779296875	-485.3844909667969	-1125.939086914062	624.70263671875	-489.0255737304688	-1745.663696289062	139.0541687011719	-201.2686004638672	-1175.610717773438	435.9460144042969	-473.0099792480469	-1196.499267578125	592.8841552734375	-468.3429260253906	-1305.091064453125	688.8587036132812	-192.7449340820312	-915.8488159179688	161.0963745117188	-414.0096740722656	-1375.3037109375	722.7533569335938	-180.7467193603516	-1345.81689453125	599.3802490234375	-216.4921264648438	-1421.817504882812	632.6377563476562	-196.8133544921875	-1125.393188476562	550.6140747070312	-477.4229736328125	-1439.1669921875	558.4912719726562	-205.2997589111328	-1093.432861328125	439.09619140625	-475.3248901367188	-1092.287841796875	337.8671264648438	-458.3635864257812	-1507.66650390625	452.5748291015625	-198.5032501220703	-982.9752807617188	126.5771408081055	-465.3966674804688	-1569.562133789062	511.1729125976562	-198.2635345458984	-1146.331176757812	103.5245590209961	-337.5940551757812	-1583.6494140625	381.3077697753906	-206.1602020263672	-1636.020385742188	441.3717651367188	-206.6499481201172	-1122.498046875	159.78466796875	-429.385009765625	-1738.7939453125	293.2095642089844	-222.291259765625	-1701.783203125	80.52120971679688	-261.2742309570312	-1777.32470703125	329.0316162109375	-275.3932189941406	-1794.82568359375	305.7921142578125	-308.9980163574219	-1801.180053710938	318.8188781738281	-251.7446441650391	-1161.579833984375	93.45635986328124	-388.7880249023438
90	0.445	-1247.138793945312	1470.404418945312	-527.149658203125	-1125.625122070312	1465.72314453125	-250.2054748535156	-1243.503173828125	1028.185424804688	-498.9586791992188	-1182.15478515625	1022.513305664062	-231.7310791015625	-1198.17724609375	977.4363403320312	-478.3719177246094	-1138.610107421875	117.7363128662109	-362.5709838867188	-1166.308349609375	975.5216674804688	-249.4711456298828	-1332.434814453125	910.9469604492188	-511.3331909179688	-1323.70849609375	953.66650390625	-183.5922393798828	-1348.532836914062	1040.367431640625	-349.9611206054688	-1163.735473632812	704.482177734375	-514.968017578125	-1153.087646484375	334.5197143554688	-452.4622192382812	-1229.642578125	674.70654296875	-485.5758056640625	-1111.740234375	621.9284057617188	-490.4590759277344	-1735.562866210938	145.0388031005859	-199.2154693603516	-1158.88134765625	432.3786010742188	-471.9773559570312	-1183.076782226562	590.54736328125	-467.3193359375	-1288.73486328125	688.4258422851562	-193.2295227050781	-890.04345703125	164.7100372314453	-414.6741027832031	-1357.934204101562	722.5628051757812	-180.5413818359375	-1329.562866210938	598.4468383789062	-216.5664520263672	-1405.560424804688	632.0396118164062	-197.0558776855469	-1111.585693359375	547.6895751953125	-476.3707885742188	-1423.127197265625	558.0763549804688	-205.4421997070312	-1076.811157226562	437.0565490722656	-474.8880004882812	-1072.85107421875	336.8212890625	-459.1334838867188	-1493.3388671875	453.7244567871094	-198.2161712646484	-956.0588989257812	127.7277526855469	-465.7503051757812	-1554.312866210938	513.4400024414062	-198.3738403320312	-1119.071166992188	99.88762664794922	-338.1890258789062	-1571.180786132812	383.9891662597656	-206.0472564697266	-1621.7333984375	444.9007568359375	-206.9179534912109	-1096.436279296875	156.4458618164062	-428.9596557617188	-1727.0576171875	298.0684204101562	-222.1017608642578	-1691.065673828125	84.9088134765625	-257.96728515625	-1765.292358398438	333.7025146484375	-276.5467224121094	-1782.916381835938	310.2300720214844	-308.9088439941406	-1789.433227539062	323.779296875	-252.3098907470703	-1133.778930664062	89.40352630615234	-388.9850463867188
91	0.45	-1231.572875976562	1468.960205078125	-528.1653442382812	-1109.413208007812	1464.695678710938	-251.0400848388672	-1227.030395507812	1026.40185546875	-499.235595703125	-1165.810791015625	1021.626159667969	-231.2787780761719	-1181.542846679688	976.0037231445312	-478.0981140136719	-1112.73876953125	114.2610244750977	-362.8700866699219	-1149.82275390625	974.4798583984376	-249.4111938476562	-1316.347534179688	909.339599609375	-511.1435241699219	-1307.7236328125	952.6836547851562	-183.9135589599609	-1331.870483398438	1039.249389648438	-349.9674682617188	-1149.0361328125	701.376953125	-516.152587890625	-1134.0146484375	331.1650695800781	-451.6690368652344	-1214.899536132812	672.7454223632812	-485.2770385742188	-1097.754760742188	618.3434448242188	-491.0979919433594	-1723.96875	150.6001739501953	-197.3590393066406	-1142.237182617188	428.8043823242188	-470.6962890625	-1168.780029296875	588.3392944335938	-466.577880859375	-1271.971923828125	687.1203002929688	-193.9407501220703	-865.6441040039062	167.8773040771484	-415.622314453125	-1341.220458984375	721.056640625	-181.0773773193359	-1312.887451171875	597.6445922851562	-216.6445770263672	-1388.533081054688	631.1052856445312	-197.3309326171875	-1097.648071289062	544.924560546875	-475.8673706054688	-1406.602661132812	557.5785522460938	-205.0275421142578	-1060.551025390625	435.5408630371094	-474.9047241210938	-1053.616333007812	334.9320068359375	-459.2472229003906	-1479.304809570312	454.1170349121094	-198.3086090087891	-930.47705078125	128.4052581787109	-466.4187622070312	-1538.9462890625	515.3968505859375	-198.6965484619141	-1092.532348632812	97.18547821044922	-338.5992431640625	-1558.3251953125	386.193359375	-205.5604553222656	-1607.406860351562	447.9923095703125	-207.4091796875	-1071.6494140625	153.9847106933594	-429.3721618652344	-1715.1953125	302.5855712890625	-221.4073944091797	-1680.812622070312	89.34282684326172	-255.2454528808594	-1753.82177734375	337.9547424316406	-276.4671325683594	-1770.421875	313.9717712402344	-309.0501403808594	-1777.57861328125	328.4168090820312	-252.8849334716797	-1106.594482421875	85.52287292480469	-389.4879455566406
